<?xml version="1.0" encoding="UTF-8" standalone="no"?>
<!DOCTYPE svg PUBLIC "-//W3C//DTD SVG 1.1//EN"
 "http://www.w3.org/Graphics/SVG/1.1/DTD/svg11.dtd">
<!-- Generated by graphviz version 2.43.0 (0)
 -->
<!-- Title: Design Pages: 1 -->
<svg width="1312pt" height="260pt"
 viewBox="0.00 0.00 1311.72 260.00" xmlns="http://www.w3.org/2000/svg" xmlns:xlink="http://www.w3.org/1999/xlink">
<g id="graph0" class="graph" transform="scale(1 1) rotate(0) translate(4 256)">
<title>Design</title>
<polygon fill="white" stroke="transparent" points="-4,4 -4,-256 1307.72,-256 1307.72,4 -4,4"/>
<!-- Caesar -->
<g id="node1" class="node">
<title>Caesar</title>
<ellipse fill="none" stroke="black" cx="1006.54" cy="-162" rx="42.79" ry="18"/>
<text text-anchor="middle" x="1006.54" y="-158.3" font-family="Times,serif" font-size="14.00">Caesar</text>
</g>
<!-- Encryptor -->
<g id="node2" class="node">
<title>Encryptor</title>
<ellipse fill="none" stroke="black" cx="957.54" cy="-90" rx="57.69" ry="18"/>
<text text-anchor="middle" x="957.54" y="-86.3" font-family="Times,serif" font-size="14.00">Encryptor</text>
</g>
<!-- Caesar&#45;&gt;Encryptor -->
<g id="edge1" class="edge">
<title>Caesar&#45;&gt;Encryptor</title>
<path fill="none" stroke="black" d="M994.92,-144.41C989.03,-135.99 981.75,-125.58 975.18,-116.2"/>
<polygon fill="black" stroke="black" points="978.01,-114.14 969.41,-107.96 972.27,-118.16 978.01,-114.14"/>
</g>
<!-- InvalidCharacterException -->
<g id="node3" class="node">
<title>InvalidCharacterException</title>
<ellipse fill="none" stroke="black" cx="1168.54" cy="-90" rx="135.38" ry="18"/>
<text text-anchor="middle" x="1168.54" y="-86.3" font-family="Times,serif" font-size="14.00">InvalidCharacterException</text>
</g>
<!-- Caesar&#45;&gt;InvalidCharacterException -->
<g id="edge2" class="edge">
<title>Caesar&#45;&gt;InvalidCharacterException</title>
<path fill="none" stroke="black" d="M1035.5,-148.49C1059.27,-138.21 1093.41,-123.46 1121.16,-111.47"/>
<polygon fill="black" stroke="black" points="1122.89,-114.54 1130.68,-107.36 1120.11,-108.11 1122.89,-114.54"/>
</g>
<!-- EncryptionException -->
<g id="node5" class="node">
<title>EncryptionException</title>
<ellipse fill="none" stroke="black" cx="1168.54" cy="-18" rx="108.58" ry="18"/>
<text text-anchor="middle" x="1168.54" y="-14.3" font-family="Times,serif" font-size="14.00">EncryptionException</text>
</g>
<!-- InvalidCharacterException&#45;&gt;EncryptionException -->
<g id="edge5" class="edge">
<title>InvalidCharacterException&#45;&gt;EncryptionException</title>
<path fill="none" stroke="black" d="M1168.54,-71.7C1168.54,-63.98 1168.54,-54.71 1168.54,-46.11"/>
<polygon fill="black" stroke="black" points="1172.04,-46.1 1168.54,-36.1 1165.04,-46.1 1172.04,-46.1"/>
</g>
<!-- Clear -->
<g id="node4" class="node">
<title>Clear</title>
<ellipse fill="none" stroke="black" cx="1263.54" cy="-162" rx="36" ry="18"/>
<text text-anchor="middle" x="1263.54" y="-158.3" font-family="Times,serif" font-size="14.00">Clear</text>
</g>
<!-- Clear&#45;&gt;Encryptor -->
<g id="edge3" class="edge">
<title>Clear&#45;&gt;Encryptor</title>
<path fill="none" stroke="black" d="M1235.45,-150.68C1228.36,-148.29 1220.72,-145.89 1213.54,-144 1130.86,-122.18 1108.02,-126.52 1024.54,-108 1019.88,-106.97 1015.05,-105.84 1010.21,-104.68"/>
<polygon fill="black" stroke="black" points="1010.88,-101.24 1000.34,-102.27 1009.22,-108.04 1010.88,-101.24"/>
</g>
<!-- Clear&#45;&gt;InvalidCharacterException -->
<g id="edge4" class="edge">
<title>Clear&#45;&gt;InvalidCharacterException</title>
<path fill="none" stroke="black" d="M1243.85,-146.5C1231.13,-137.12 1214.3,-124.72 1199.78,-114.02"/>
<polygon fill="black" stroke="black" points="1201.67,-111.06 1191.54,-107.95 1197.52,-116.7 1201.67,-111.06"/>
</g>
<!-- InvalidKeyException -->
<g id="node6" class="node">
<title>InvalidKeyException</title>
<ellipse fill="none" stroke="black" cx="419.54" cy="-90" rx="106.68" ry="18"/>
<text text-anchor="middle" x="419.54" y="-86.3" font-family="Times,serif" font-size="14.00">InvalidKeyException</text>
</g>
<!-- HashingException -->
<g id="node7" class="node">
<title>HashingException</title>
<ellipse fill="none" stroke="black" cx="283.54" cy="-18" rx="95.58" ry="18"/>
<text text-anchor="middle" x="283.54" y="-14.3" font-family="Times,serif" font-size="14.00">HashingException</text>
</g>
<!-- InvalidKeyException&#45;&gt;HashingException -->
<g id="edge6" class="edge">
<title>InvalidKeyException&#45;&gt;HashingException</title>
<path fill="none" stroke="black" d="M387.99,-72.76C368.94,-62.96 344.47,-50.36 324,-39.83"/>
<polygon fill="black" stroke="black" points="325.4,-36.61 314.91,-35.15 322.2,-42.84 325.4,-36.61"/>
</g>
<!-- Padcut -->
<g id="node8" class="node">
<title>Padcut</title>
<ellipse fill="none" stroke="black" cx="449.54" cy="-162" rx="42.49" ry="18"/>
<text text-anchor="middle" x="449.54" y="-158.3" font-family="Times,serif" font-size="14.00">Padcut</text>
</g>
<!-- Padcut&#45;&gt;InvalidKeyException -->
<g id="edge8" class="edge">
<title>Padcut&#45;&gt;InvalidKeyException</title>
<path fill="none" stroke="black" d="M442.27,-144.05C438.86,-136.09 434.71,-126.41 430.9,-117.51"/>
<polygon fill="black" stroke="black" points="434.1,-116.09 426.94,-108.28 427.66,-118.85 434.1,-116.09"/>
</g>
<!-- Hasher -->
<g id="node9" class="node">
<title>Hasher</title>
<ellipse fill="none" stroke="black" cx="588.54" cy="-90" rx="44.39" ry="18"/>
<text text-anchor="middle" x="588.54" y="-86.3" font-family="Times,serif" font-size="14.00">Hasher</text>
</g>
<!-- Padcut&#45;&gt;Hasher -->
<g id="edge7" class="edge">
<title>Padcut&#45;&gt;Hasher</title>
<path fill="none" stroke="black" d="M475.68,-147.83C497.34,-136.93 528.36,-121.31 552.4,-109.2"/>
<polygon fill="black" stroke="black" points="554.2,-112.21 561.56,-104.58 551.06,-105.96 554.2,-112.21"/>
</g>
<!-- ShiftHasher -->
<g id="node10" class="node">
<title>ShiftHasher</title>
<ellipse fill="none" stroke="black" cx="652.54" cy="-162" rx="66.89" ry="18"/>
<text text-anchor="middle" x="652.54" y="-158.3" font-family="Times,serif" font-size="14.00">ShiftHasher</text>
</g>
<!-- ShiftHasher&#45;&gt;Encryptor -->
<g id="edge9" class="edge">
<title>ShiftHasher&#45;&gt;Encryptor</title>
<path fill="none" stroke="black" d="M701.88,-149.68C756.75,-137.08 845.17,-116.79 902.31,-103.68"/>
<polygon fill="black" stroke="black" points="903.28,-107.04 912.25,-101.39 901.72,-100.22 903.28,-107.04"/>
</g>
<!-- ShiftHasher&#45;&gt;Hasher -->
<g id="edge10" class="edge">
<title>ShiftHasher&#45;&gt;Hasher</title>
<path fill="none" stroke="black" d="M637.37,-144.41C629.2,-135.48 618.99,-124.31 610.02,-114.5"/>
<polygon fill="black" stroke="black" points="612.49,-112.01 603.15,-106.99 607.32,-116.73 612.49,-112.01"/>
</g>
<!-- TestEncryptors -->
<g id="node11" class="node">
<title>TestEncryptors</title>
<ellipse fill="none" stroke="black" cx="1159.54" cy="-234" rx="81.79" ry="18"/>
<text text-anchor="middle" x="1159.54" y="-230.3" font-family="Times,serif" font-size="14.00">TestEncryptors</text>
</g>
<!-- TestEncryptors&#45;&gt;Caesar -->
<g id="edge11" class="edge">
<title>TestEncryptors&#45;&gt;Caesar</title>
<path fill="none" stroke="black" d="M1125.58,-217.46C1101.38,-206.39 1068.85,-191.51 1043.91,-180.1"/>
<polygon fill="black" stroke="black" points="1045.31,-176.89 1034.76,-175.91 1042.4,-183.26 1045.31,-176.89"/>
</g>
<!-- TestEncryptors&#45;&gt;Encryptor -->
<g id="edge13" class="edge">
<title>TestEncryptors&#45;&gt;Encryptor</title>
<path fill="none" stroke="black" d="M1171.16,-216.08C1182.91,-196.68 1197.14,-164.87 1180.54,-144 1136.24,-88.32 1093.69,-124.75 1024.54,-108 1019.97,-106.89 1015.23,-105.73 1010.47,-104.54"/>
<polygon fill="black" stroke="black" points="1011.3,-101.14 1000.75,-102.11 1009.6,-107.94 1011.3,-101.14"/>
</g>
<!-- TestEncryptors&#45;&gt;Clear -->
<g id="edge12" class="edge">
<title>TestEncryptors&#45;&gt;Clear</title>
<path fill="none" stroke="black" d="M1183.66,-216.76C1198.85,-206.54 1218.54,-193.29 1234.57,-182.49"/>
<polygon fill="black" stroke="black" points="1236.71,-185.28 1243.05,-176.79 1232.8,-179.47 1236.71,-185.28"/>
</g>
<!-- Vigenere -->
<g id="node12" class="node">
<title>Vigenere</title>
<ellipse fill="none" stroke="black" cx="1119.54" cy="-162" rx="51.99" ry="18"/>
<text text-anchor="middle" x="1119.54" y="-158.3" font-family="Times,serif" font-size="14.00">Vigenere</text>
</g>
<!-- TestEncryptors&#45;&gt;Vigenere -->
<g id="edge14" class="edge">
<title>TestEncryptors&#45;&gt;Vigenere</title>
<path fill="none" stroke="black" d="M1149.85,-216.05C1145.14,-207.8 1139.37,-197.7 1134.13,-188.54"/>
<polygon fill="black" stroke="black" points="1137.13,-186.73 1129.13,-179.79 1131.05,-190.21 1137.13,-186.73"/>
</g>
<!-- Vigenere&#45;&gt;Encryptor -->
<g id="edge30" class="edge">
<title>Vigenere&#45;&gt;Encryptor</title>
<path fill="none" stroke="black" d="M1088.3,-147.5C1063.05,-136.59 1027.27,-121.13 999.52,-109.14"/>
<polygon fill="black" stroke="black" points="1000.63,-105.81 990.06,-105.06 997.86,-112.23 1000.63,-105.81"/>
</g>
<!-- Vigenere&#45;&gt;InvalidCharacterException -->
<g id="edge31" class="edge">
<title>Vigenere&#45;&gt;InvalidCharacterException</title>
<path fill="none" stroke="black" d="M1131.15,-144.41C1137.04,-135.99 1144.33,-125.58 1150.9,-116.2"/>
<polygon fill="black" stroke="black" points="1153.8,-118.16 1156.67,-107.96 1148.07,-114.14 1153.8,-118.16"/>
</g>
<!-- TestHashers -->
<g id="node13" class="node">
<title>TestHashers</title>
<ellipse fill="none" stroke="black" cx="652.54" cy="-234" rx="68.79" ry="18"/>
<text text-anchor="middle" x="652.54" y="-230.3" font-family="Times,serif" font-size="14.00">TestHashers</text>
</g>
<!-- TestHashers&#45;&gt;Caesar -->
<g id="edge15" class="edge">
<title>TestHashers&#45;&gt;Caesar</title>
<path fill="none" stroke="black" d="M706.28,-222.68C718.21,-220.44 730.8,-218.11 742.54,-216 836.61,-199.13 861.75,-202.91 954.54,-180 957.96,-179.15 961.48,-178.2 965.01,-177.18"/>
<polygon fill="black" stroke="black" points="966.3,-180.44 974.85,-174.18 964.27,-173.74 966.3,-180.44"/>
</g>
<!-- TestHashers&#45;&gt;Encryptor -->
<g id="edge16" class="edge">
<title>TestHashers&#45;&gt;Encryptor</title>
<path fill="none" stroke="black" d="M675.37,-216.94C709.78,-192.81 772.16,-149.44 783.54,-144 821.26,-125.95 866.52,-112.39 901.42,-103.51"/>
<polygon fill="black" stroke="black" points="902.58,-106.83 911.43,-101.02 900.89,-100.04 902.58,-106.83"/>
</g>
<!-- TestHashers&#45;&gt;Padcut -->
<g id="edge18" class="edge">
<title>TestHashers&#45;&gt;Padcut</title>
<path fill="none" stroke="black" d="M612.43,-219.17C577.26,-207.04 526.34,-189.48 490.82,-177.24"/>
<polygon fill="black" stroke="black" points="491.83,-173.88 481.24,-173.93 489.55,-180.5 491.83,-173.88"/>
</g>
<!-- TestHashers&#45;&gt;Hasher -->
<g id="edge17" class="edge">
<title>TestHashers&#45;&gt;Hasher</title>
<path fill="none" stroke="black" d="M602.58,-221.55C580.49,-213.73 556.6,-200.87 543.54,-180 530.04,-158.42 546.88,-132.28 563.67,-113.93"/>
<polygon fill="black" stroke="black" points="566.34,-116.2 570.77,-106.58 561.31,-111.34 566.34,-116.2"/>
</g>
<!-- TestHashers&#45;&gt;ShiftHasher -->
<g id="edge19" class="edge">
<title>TestHashers&#45;&gt;ShiftHasher</title>
<path fill="none" stroke="black" d="M652.54,-215.7C652.54,-207.98 652.54,-198.71 652.54,-190.11"/>
<polygon fill="black" stroke="black" points="656.04,-190.1 652.54,-180.1 649.04,-190.1 656.04,-190.1"/>
</g>
<!-- TestHashers&#45;&gt;Vigenere -->
<g id="edge21" class="edge">
<title>TestHashers&#45;&gt;Vigenere</title>
<path fill="none" stroke="black" d="M705.25,-222.37C717.46,-220.1 730.43,-217.83 742.54,-216 882.3,-194.87 919.8,-207.06 1058.54,-180 1062.97,-179.14 1067.54,-178.11 1072.11,-177"/>
<polygon fill="black" stroke="black" points="1073.2,-180.34 1082.01,-174.46 1071.46,-173.56 1073.2,-180.34"/>
</g>
<!-- UnknownAlgorithmException -->
<g id="node14" class="node">
<title>UnknownAlgorithmException</title>
<ellipse fill="none" stroke="black" cx="147.54" cy="-90" rx="147.57" ry="18"/>
<text text-anchor="middle" x="147.54" y="-86.3" font-family="Times,serif" font-size="14.00">UnknownAlgorithmException</text>
</g>
<!-- TestHashers&#45;&gt;UnknownAlgorithmException -->
<g id="edge20" class="edge">
<title>TestHashers&#45;&gt;UnknownAlgorithmException</title>
<path fill="none" stroke="black" d="M596.27,-223.51C544.45,-214.25 465.66,-198.81 398.54,-180 327.65,-160.13 247.83,-130.55 197.62,-111.02"/>
<polygon fill="black" stroke="black" points="198.88,-107.75 188.3,-107.37 196.34,-114.27 198.88,-107.75"/>
</g>
<!-- UnknownAlgorithmException&#45;&gt;HashingException -->
<g id="edge22" class="edge">
<title>UnknownAlgorithmException&#45;&gt;HashingException</title>
<path fill="none" stroke="black" d="M179.77,-72.41C198.7,-62.66 222.81,-50.25 243.03,-39.85"/>
<polygon fill="black" stroke="black" points="244.72,-42.92 252.01,-35.23 241.51,-36.69 244.72,-42.92"/>
</g>
<!-- Vault -->
<g id="node15" class="node">
<title>Vault</title>
<ellipse fill="none" stroke="black" cx="785.54" cy="-234" rx="34.39" ry="18"/>
<text text-anchor="middle" x="785.54" y="-230.3" font-family="Times,serif" font-size="14.00">Vault</text>
</g>
<!-- Vault&#45;&gt;Caesar -->
<g id="edge23" class="edge">
<title>Vault&#45;&gt;Caesar</title>
<path fill="none" stroke="black" d="M814.58,-224.01C848.27,-213.55 905.49,-195.71 954.54,-180 957.66,-179 960.88,-177.96 964.12,-176.91"/>
<polygon fill="black" stroke="black" points="965.4,-180.18 973.82,-173.76 963.23,-173.52 965.4,-180.18"/>
</g>
<!-- Vault&#45;&gt;Encryptor -->
<g id="edge24" class="edge">
<title>Vault&#45;&gt;Encryptor</title>
<path fill="none" stroke="black" d="M784.5,-215.73C784.27,-196 786.96,-163.89 804.54,-144 827.05,-118.53 862.43,-105.3 893.49,-98.42"/>
<polygon fill="black" stroke="black" points="894.31,-101.83 903.41,-96.41 892.91,-94.97 894.31,-101.83"/>
</g>
<!-- Vault&#45;&gt;Padcut -->
<g id="edge26" class="edge">
<title>Vault&#45;&gt;Padcut</title>
<path fill="none" stroke="black" d="M757.16,-223.56C748.66,-220.91 739.27,-218.17 730.54,-216 708.3,-210.49 572.07,-185.37 497.77,-171.79"/>
<polygon fill="black" stroke="black" points="498.18,-168.31 487.71,-169.95 496.92,-175.19 498.18,-168.31"/>
</g>
<!-- Vault&#45;&gt;Hasher -->
<g id="edge25" class="edge">
<title>Vault&#45;&gt;Hasher</title>
<path fill="none" stroke="black" d="M757.1,-223.79C748.59,-221.15 739.22,-218.35 730.54,-216 662.7,-197.61 620.22,-235.07 576.54,-180 562.59,-162.42 568.12,-136.48 575.63,-117.13"/>
<polygon fill="black" stroke="black" points="578.95,-118.27 579.65,-107.7 572.51,-115.53 578.95,-118.27"/>
</g>
<!-- Vault&#45;&gt;ShiftHasher -->
<g id="edge27" class="edge">
<title>Vault&#45;&gt;ShiftHasher</title>
<path fill="none" stroke="black" d="M762.07,-220.65C742.4,-210.3 713.94,-195.32 690.96,-183.22"/>
<polygon fill="black" stroke="black" points="692.29,-179.97 681.81,-178.41 689.03,-186.16 692.29,-179.97"/>
</g>
<!-- Vault&#45;&gt;Vigenere -->
<g id="edge29" class="edge">
<title>Vault&#45;&gt;Vigenere</title>
<path fill="none" stroke="black" d="M818.08,-227.55C869.43,-218.76 972.31,-200.35 1058.54,-180 1062.63,-179.03 1066.86,-177.98 1071.1,-176.88"/>
<polygon fill="black" stroke="black" points="1072.17,-180.21 1080.93,-174.26 1070.37,-173.45 1072.17,-180.21"/>
</g>
<!-- UserRecord -->
<g id="node16" class="node">
<title>UserRecord</title>
<ellipse fill="none" stroke="black" cx="879.54" cy="-162" rx="65.79" ry="18"/>
<text text-anchor="middle" x="879.54" y="-158.3" font-family="Times,serif" font-size="14.00">UserRecord</text>
</g>
<!-- Vault&#45;&gt;UserRecord -->
<g id="edge28" class="edge">
<title>Vault&#45;&gt;UserRecord</title>
<path fill="none" stroke="black" d="M804.56,-218.83C817.47,-209.22 834.82,-196.3 849.58,-185.31"/>
<polygon fill="black" stroke="black" points="851.98,-187.88 857.91,-179.1 847.8,-182.27 851.98,-187.88"/>
</g>
</g>
</svg>
